<svg width="25" height="24" viewBox="0 0 25 24" fill="none" xmlns="http://www.w3.org/2000/svg">
<path d="M8.74846 20C10.2272 20.0495 11.7008 19.802 13.0822 19.2723C14.4636 18.7426 15.7249 17.9413 16.7914 16.9158C17.8578 15.8903 18.7079 14.6615 19.2914 13.3019C19.8749 11.9423 20.1799 10.4795 20.1885 9C20.8661 8.16141 21.3693 7.19583 21.6685 6.16C21.6908 6.07816 21.689 5.99161 21.6633 5.91077C21.6375 5.82993 21.589 5.75825 21.5235 5.70436C21.458 5.65047 21.3783 5.61667 21.294 5.60702C21.2097 5.59738 21.1245 5.6123 21.0485 5.65C20.6939 5.82065 20.2948 5.87578 19.9073 5.8076C19.5198 5.73943 19.1634 5.5514 18.8885 5.27C18.5374 4.88558 18.1128 4.57553 17.6397 4.35823C17.1666 4.14092 16.6548 4.02079 16.1344 4.00493C15.6141 3.98908 15.0958 4.07783 14.6104 4.26594C14.125 4.45404 13.6823 4.73766 13.3085 5.1C12.7967 5.59566 12.4218 6.21529 12.2203 6.89867C12.0188 7.58206 11.9975 8.30595 12.1585 9C8.80846 9.2 6.50846 7.61 4.66846 5.43C4.61318 5.3674 4.54087 5.32225 4.46036 5.30007C4.37985 5.27788 4.29462 5.27962 4.21508 5.30508C4.13555 5.33053 4.06514 5.37859 4.01247 5.44339C3.95979 5.5082 3.92713 5.58694 3.91846 5.67C3.56793 7.61442 3.82079 9.61955 4.64308 11.4161C5.46537 13.2126 6.8177 14.7145 8.51846 15.72C7.3781 17.0278 5.77667 17.8447 4.04846 18C3.95587 18.0154 3.8704 18.0593 3.80401 18.1256C3.73762 18.1919 3.69363 18.2774 3.6782 18.37C3.66277 18.4625 3.67668 18.5576 3.71796 18.6419C3.75925 18.7262 3.82586 18.7954 3.90846 18.84C5.41198 19.5914 7.06769 19.9882 8.74846 20Z" fill="white"/>
</svg>
